<svg
    class="logo"
    version="1.1"
    id="Слой_1"
    xmlns="http://www.w3.org/2000/svg"
    xmlns:xlink="http://www.w3.org/1999/xlink"
    x="0px"
    y="0px"
    viewBox="0 0 2657.9 651.2"
    style="enable-background:new 0 0 2657.9 651.2;"
    xml:space="preserve"
  >
    <style type="text/css">
      .st0 {
        fill: #fff;
        stroke: #ffffff;
        stroke-width: 4;
        stroke-linecap: round;
        stroke-miterlimit: 10;
      }
    </style>
    <g>
      <path
        class="st0"
        d="M87.4,457.2l-61.3,10.1c-14.9,2.1-29.3-13.9-25.6-28.8c1.1-4.3,4.3-5.9,8-6.4c10.7-2.1,21.3-4.3,32-5.9
       c29.8-5.3,60.2-10.1,90.6-11.7c13.9-0.5,27.7-1.1,41.6,2.1c23.5,4.8,37.3,26.1,40.5,45.8c0,1.6,0,3.2-0.5,4.8
       c-0.5,2.1-1.6,4.3-3.2,4.8c-1.6,0-3.7-1.1-5.3-2.1l-1.6-2.7c-6.9-13.3-19.2-15.5-32.5-16c-5.3,8.5-8,17.6-10.7,26.7
       c-3.7,16-5.3,32-2.1,48c6.9,33,29.3,51.7,60.2,60.2c20.3,5.9,40.5,4.3,61.3,0.5c22.9-4.3,44.8-12.8,64-26.7
       c8-5.3,15.5-11.7,21.3-19.2c15.5-18.7,19.7-40.5,13.9-64c-4.3-16.5-11.7-31.4-20.3-45.8c-17.1-26.7-36.8-50.6-56-75.2
       c-18.7-24-36.2-48.5-50.6-75.7c-8-15.5-14.9-31.4-18.1-49c-4.8-29.3,1.6-56.5,14.9-82.1c13.9-26.7,34.1-46.9,57.6-65
       c44.8-35.2,95.4-56,151.4-64.5c10.1-1.6,20.3-3.2,29.8-3.2c16.5-0.5,28.2,9.1,36.8,22.4c3.7,5.3,3.7,12.3,1.6,18.1
       c-5.3,12.3-10.1,24.5-16,36.8c-20.8,45.8-42.6,92.2-62.9,138.6c-12.8,28.8-24,58.1-31.4,89c-4.3,18.1-5.9,36.2,2.1,54.4
       c1.6,3.7,4.3,9.1-0.5,11.7c-2.1,1.1-7.5-1.1-10.7-3.2C388,373.5,380,356.5,379,336.8c-1.6-23.5,4.3-45.8,11.2-68.2
       c15.5-50.1,35.7-98.1,57.6-145.5l32.5-69.8l3.2-8c-9.6,1.6-18.1,2.7-26.1,4.3c-51.2,11.7-95.9,34.6-133.8,70.9
       c-13.9,12.8-26.1,27.7-35.2,44.8c-18.1,34.1-19.2,68.2-2.7,102.9c12.3,25.6,28.8,48,45.8,69.3c21.9,27.2,43.7,53.3,64.5,80.5
       c12.8,16.5,23.5,34.6,31.4,53.8c16.5,40,3.7,74.1-26.1,98.6c-20.8,17.6-45.8,27.7-71.4,35.2c-25.6,7.5-51.2,11.2-77.3,8.5
       c-43.2-3.7-82.6-17.6-112.5-50.1c-20.3-21.9-27.7-48-24-77.3c1.1-10.7,4.3-21.9,6.4-34.1L87.4,457.2z"
      />
      <path
        class="st0"
        d="M742.5,338.9c3.2,1.1,6.4,3.2,10.1,4.8c-1.6,3.2-2.1,5.3-3.2,6.4c-19.2,23.5-39.4,45.8-65.6,61.8
       c-8,4.8-17.1,8.5-26.1,12.3c-5.3,2.1-9.1,4.3-12.3,9.1c-12.8,18.1-27.2,35.2-44.8,49c-13.3,10.7-28.8,16-45.8,13.9
       c-43.2-6.4-73.6-45.8-73.6-87.9c-0.5-40,11.2-76.8,37.3-107.7c9.1-10.1,16-20.3,21.3-33c7.5-18.1,20.3-33.6,36.2-45.3
       c21.3-14.9,43.7-16.5,66.6-5.9c31.4,14.9,48,40.5,50.6,75.2c2.1,29.3-2.7,57-15.5,83.1l-9.1,19.7c22.4-5.3,48.5-29.3,65.6-52.2
       C736.6,338.9,739.3,337.8,742.5,338.9z M531.9,434.8c4.3,46.4,37.3,30.9,61.8,6.4l12.3-13.9c-29.3-7.5-51.2-22.9-66.1-50.6
       C533.5,395.4,530.3,417.2,531.9,434.8z M578.3,299.5c6.4,7.5,5.9,11.7-2.7,17.1c-1.1,1.1-2.1,2.1-3.2,2.7
       c-9.1,6.4-14.9,13.9-11.2,25.6v2.7c3.2,17.6,8,34.6,20.3,49c7.5,9.6,17.1,14.9,29.3,16c4.8,0.5,7.5-0.5,10.1-4.8
       c6.9-11.7,14.4-23.5,20.8-35.7c13.3-27.2,21.3-55.4,20.3-85.8c-0.5-17.6-4.8-34.6-16.5-48.5c-4.3-4.8-9.6-6.9-16-6.4
       c-10.7,1.1-20.3,5.3-28.3,12.3c-14.9,12.3-25.1,27.7-32.5,44.2C572.4,292,575.6,295.7,578.3,299.5z"
      />
      <path
        class="st0"
        d="M870.4,278.1c-13.3,6.4-24,13.9-32.5,22.9c-25.6,26.7-43.7,58.1-53.3,93.8c-4.8,16-5.3,33-1.1,49
       c6.9,25.6,14.4,25.6,34.1,20.3c14.4-3.7,27.2-10.7,39.4-19.7c16-11.2,29.8-25.1,43.2-40c17.1-19.2,34.6-37.8,49-59.2
       c3.2-5.3,9.6-6.9,14.4-3.7c4.3,2.7,5.3,8,2.1,13.9c-7.5,11.2-15.5,22.4-23.5,33c-12.8,16-26.1,32-39.4,47.4
       c-16.5,19.2-36.2,34.6-60.2,44.2c-14.9,5.9-29.8,7.5-45.8,3.2c-29.8-8-46.9-27.7-52.8-57.6c-4.8-22.4-2.7-44.8,4.3-66.6
       c11.2-36.8,30.4-69.3,59.7-94.9c9.1-8.5,19.7-14.9,31.4-19.7c22.4-9.6,42.6-4.3,60.8,10.7c6.9,5.3,12.3,11.7,13.9,21.3
       c0.5,5.9-0.5,10.1-3.2,14.9c-7.5,16.5-13.9,33.6-17.1,51.7c-1.6,6.4-1.6,12.8,0,19.7c2.1,6.9-0.5,9.6-8,8
       c-14.9-3.7-25.1-17.6-26.1-35.2c-0.5-16,3.7-32,8-47.4L870.4,278.1z"
      />
      <path
        class="st0"
        d="M990.8,483.3c7.5-8,15.5-16,22.4-25.1c28.8-35.7,59.2-70.9,85.3-109.3l4.3-5.3c5.3-6.4,9.1-6.9,17.1,0
       c-1.1,2.1-2.1,4.3-3.7,6.4l-89.5,124.2c-7.5,9.6-15.5,18.7-24,27.2c-11.7,12.3-33,12.8-45.8,1.6c-5.3-4.3-7.5-10.7-9.1-17.1
       c-3.2-18.7-1.6-37.3,2.7-56c12.3-53.8,32.5-103.9,61.8-150.8l9.6-13.3c3.2-4.3,7.5-5.3,12.8-4.8c7.5,1.6,13.9,4.8,19.2,10.1
       c5.9,5.3,6.4,8.5,2.7,16l-28.3,62.9c-17.1,40-30.4,81-41.6,123.1c-1.1,4.3-1.6,9.1-2.7,16L990.8,483.3z M1053.7,202.4
       c3.2-10.1,6.9-19.7,10.7-29.3c2.1-5.9,5.3-7.5,10.7-6.4c10.7,2.1,19.2,8.5,25.1,18.1c2.7,3.7,2.1,7.5,0,11.2
       c-4.8,7.5-9.6,15.5-13.3,23.5c-2.1,4.3-3.2,9.1-4.3,13.9c-0.5,4.3-2.7,5.9-6.4,5.3c-11.7-0.5-24.5-14.4-24-28.2
       C1052.1,208.8,1052.7,205.6,1053.7,202.4z"
      />
      <path
        class="st0"
        d="M1207.2,438l-42.6,48c-3.2,3.7-6.9,6.4-10.1,9.6c-8,6.9-17.1,7.5-26.7,3.7c-14.4-5.9-23.5-15.5-28.2-30.4
       c-3.2-11.2-3.7-22.4-2.7-34.1c3.2-34.6,15.5-66.6,33-96.5c16-27.2,34.6-52.2,58.6-72.5c12.3-10.7,26.1-19.2,42.1-24
       c27.2-8.5,50.1-1.1,70.4,18.7c6.9,6.4,12.3,14.4,15.5,23.5c2.1,5.3,2.7,10.7,0.5,16c-3.7,11.2-12.3,12.8-20.3,4.3
       c-4.8-4.8-5.3-10.7-5.9-16.5c-1.1-10.1-2.1-11.2-12.3-11.7c-10.7-1.1-20.8,2.1-29.8,6.9c-18.1,9.6-33,22.4-46.9,36.8
       c-34.1,36.2-57,78.9-66.6,127.9c-0.5,3.2-1.1,6.4-1.1,9.6c0,2.1,0,3.7,0.5,7.5l5.9-5.3c27.2-26.6,50.1-56.5,72.5-86.9
       c5.9-8.5,12.3-17.1,18.7-25.1c2.1-3.2,3.7-5.9,6.4-8c6.4-5.3,11.7-11.2,14.9-19.2c2.7-5.3,7.5-7.5,13.9-6.4
       c8.5,1.6,16.5,4.8,22.9,11.2c4.8,4.3,6.9,9.1,4.3,16c-8.5,22.4-16,44.8-24,67.2c-3.2,9.1-5.9,18.1-8.5,27.7l2.1,1.1l5.3-4.8
       l86.3-86.3c2.1-1.6,4.3-4.3,6.9-5.3c2.1-1.6,5.3-2.7,8-2.1c2.1,0,5.3,1.6,5.9,3.2c1.1,2.1-0.5,5.3-2.1,6.9
       c-6.4,7.5-13.9,14.4-20.8,21.9c-24.5,27.7-49,56-74.1,83.7l-25.6,30.4c-11.2,12.8-24.5,14.4-38.4,4.3c-6.4-4.8-8-11.2-7.5-18.7
       c1.1-9.6,2.7-19.2,4.3-28.8c0-2.7,0.5-5.3,1.6-10.1L1207.2,438z"
      />
      <path
        class="st0"
        d="M1416.7,483.9c3.2-3.2,6.4-5.9,9.1-9.1c20.3-23.5,36.2-50.1,52.8-76.2c9.6-15.5,19.2-30.9,29.3-45.8
       c4.3-6.9,9.6-8.5,16-6.9c4.8,1.1,5.9,3.2,4.3,7.5l-1.6,3.2l-53.8,94.9c-8,12.8-17.1,25.1-25.6,36.8c-4.3,5.9-9.1,10.7-14.4,14.9
       c-13.3,11.2-28.2,12.3-43.2,6.9c-13.3-4.8-18.1-16-20.8-28.2c-3.2-14.9-2.1-29.8-1.1-44.8c5.3-60.2,24.5-116.7,46.4-172.7
       c14.9-37.8,31.4-75.7,50.6-111.9c13.3-25.1,28.8-49.6,48-71.4c8-9.6,17.1-17.6,27.7-24c10.7-5.9,22.4-10.1,35.2-7.5
       c19.2,3.7,30.4,16,30.9,35.2c0.5,20.3-4.3,39.4-11.7,58.1c-25.1,62.4-66.1,126.3-109.8,173.8c-12.3,13.3-26.6,25.6-41,38.4
       c-2.7,2.7-4.8,4.8-5.9,9.1c-9.1,35.2-17.1,70.4-21.9,106.6l-1.1,12.3L1416.7,483.9z M1558.5,84.1c-6.9,9.1-13.9,18.7-19.7,28.8
       c-35.2,61.3-61.3,127.9-81,194.5c41-46.4,71.4-91.7,100.2-140.7c9.6-16,16.5-33.6,21.9-51.7c5.9-19.2,10.7-46.4,1.1-48
       C1570.7,70.8,1563.8,76.7,1558.5,84.1z"
      />
      <path
        class="st0"
        d="M1968.3,330.4c-51.2,5.9-100.7,10.7-150.3,16.5c-6.9,18.1-13.9,35.7-20.3,53.8c-12.8,35.2-24.5,70.9-33,107.1
       c-5.3,21.9-8,43.7-6.4,66.1c0.5,11.2,0.5,22.4-2.7,33c-2.7,7.5-8,9.6-14.4,4.3c-7.5-6.4-13.3-14.4-17.6-23.5
       c-5.3-11.2-8-24-8.5-36.8c-1.1-28.2,4.8-55.4,11.7-82.6c9.1-36.2,20.8-72,33.6-107.7c1.1-2.1,1.6-4.8,2.7-8l-32,2.1
       c-8.5,0-16.5,0-25.1-0.5c-14.9-1.6-28.8-16-30.4-30.4c-0.5-6.9,2.1-9.1,8.5-7.5c3.7,1.1,7.5,2.1,10.7,1.6
       c27.7-1.6,55.4-3.2,83.7-5.3c35.2-90.1,75.7-177,118.3-263.8c-12.3-1.1-22.4,1.1-33,3.2c-47.4,9.6-88.5,30.9-122.1,66.6
       c-8,8.5-14.9,18.1-19.7,28.8c-3.7,7.5-5.9,14.9-2.1,22.4v2.7c-3.2,3.2-6.4,1.6-9.1,0.5c-13.3-7.5-25.6-18.7-18.7-40
       c4.3-12.3,10.7-22.9,19.2-32.5c21.9-26.7,49-46.4,80.5-60.8c31.4-14.4,65-23.5,100.2-24.5c2.1,0,4.3-0.5,6.9-0.5
       c20.3-2.1,36.2,6.4,49,21.9c6.4,6.9,8,15.5,3.7,24c-4.3,10.1-9.1,20.3-14.4,30.4c-35.2,67.7-67.7,136.4-98.6,206.3l-3.2,8.5
       l146.6-11.7l13.3-34.6c29.3-73,59.7-145,92.7-216.4c2.7-5.9,5.9-11.2,9.1-17.1c3.2-5.3,8-8,14.4-6.9c13.9,2.7,25.1,10.1,32.5,22.4
       c3.2,5.3,2.1,11.2-0.5,16.5l-17.6,36.8c-30.4,63.4-59.2,127.9-86.3,192.9c-1.1,1.6-1.6,4.3-2.1,6.4l18.1,2.7
       c27.7,4.8,49.6,18.1,62.9,43.7c1.6,3.7,2.7,7.5,4.3,12.3c-3.2-0.5-5.3-0.5-6.9-1.1c-4.8-2.7-9.1-4.8-13.3-8
       c-12.3-7.5-25.6-12.3-40-13.3c-12.8-1.1-26.1-1.6-38.9-2.1l-2.7,5.3C1995.5,397,1971,461,1953.9,527c-6.4,24.5-11.7,49.6-11.2,75.2
       c0,8,0,16-0.5,24c0,4.3-1.6,8.5-3.2,12.8c-2.1,4.3-4.3,5.3-9.1,3.7c-2.7-1.1-5.3-2.7-7.5-4.3c-12.8-11.7-20.3-25.6-21.9-43.2
       c-2.7-25.6,1.6-51.2,7.5-76.2c12.8-53.8,30.4-106.1,49-157.8L1968.3,330.4z"
      />
      <path
        class="st0"
        d="M2113.3,473.2c2.1-2.1,4.8-4.3,6.9-6.9c9.6-12.3,19.7-24,28.2-36.8c25.6-38.9,51.2-78.4,76.2-117.8
       c4.8-8,6.9-18.1,10.1-27.7c3.2-8.5,5.9-17.1,8.5-25.6c2.7-8,8-11.7,16-11.7c7.5,0,14.9,2.1,22.4,5.3c8,3.7,10.1,10.1,8.5,18.7
       c-2.7,13.9-5.3,27.7-9.1,41.6c-10.1,35.2-20.8,69.3-30.9,104.5c-4.3,14.9-8,30.4-11.7,45.3c0,1.1,0.5,1.6,0.5,3.7l8.5-11.2
       c21.9-29.3,40.5-60.8,60.2-91.7c4.8-7.5,8.5-14.9,13.3-21.9c3.7-5.9,10.7-8,17.1-5.9c4.8,1.6,6.4,4.8,4.3,9.6l-10.7,18.1
       c-19.2,32-38.4,64-58.6,94.9c-9.6,14.9-20.8,28.8-31.4,42.6c-10.1,13.3-21.9,14.9-37.3,9.6c-7.5-2.1-11.7-7.5-12.8-14.9
       c-3.2-13.9-2.7-28.2-0.5-42.6l12.3-62.9c-3.2,3.7-4.3,6.4-5.9,8.5c-13.9,22.4-27.7,44.8-42.1,66.6c-6.4,9.1-13.9,17.6-21.3,25.6
       c-11.7,12.3-25.6,15.5-40.5,10.7c-9.6-2.7-17.1-8.5-19.7-18.1c-2.1-8.5-3.7-17.1-4.3-25.6c-0.5-29.3,5.9-58.1,12.8-86.3
       c9.1-36.2,20.3-71.4,30.4-107.1l3.2-9.1c2.7-8,8.5-11.2,16.5-11.2c10.1,0,19.7,2.7,27.7,9.1c6.4,4.8,8,9.1,4.8,17.1
       c-17.6,49.6-29.8,101.3-43.2,152.4c-4.3,16.5-6.9,33-10.7,50.1L2113.3,473.2z"
      />
      <path
        class="st0"
        d="M2375,417.8c29.3-46.4,63.4-87.9,107.1-121.5c16.5-12.8,34.1-22.4,54.4-26.7c6.9-1.6,12.8-0.5,18.7,2.1
       c16,8.5,25.6,20.8,26.1,38.9c0.5,8.5-0.5,17.6-1.1,26.1c0,2.7-0.5,4.8-1.1,9.1c4.3-2.1,8-3.2,11.2-4.3c6.9-2.7,13.9-5.9,20.8-8
       c5.9-2.1,11.2-2.1,16,1.6c3.7,3.2,3.7,6.9-0.5,9.6c-2.7,1.6-5.3,2.1-8,3.7c-13.9,5.9-27.7,12.3-41.6,18.7c-4.3,1.6-6.9,4.8-8.5,9.1
       c-10.1,26.7-24.5,50.6-41,74.1c-13.9,20.3-31.4,37.3-52.2,51.2c-17.1,11.2-35.2,15.5-55.4,8c-19.2-6.9-24-17.6-16-36.8
       c4.3-11.2,11.2-20.3,19.2-28.8c25.1-27.2,54.9-48.5,87.4-65.6c10.1-4.8,16.5-11.7,20.8-21.9c6.4-14.9,14.4-29.8,18.1-46.4
       c4.8-21.9,5.9-26.1-12.8-21.9c-12.3,3.2-22.9,9.1-33.6,16c-26.7,18.1-49.6,40.5-69.8,65.6c-26.7,32-48,67.7-67.2,104.5
       c-3.7,6.9-6.9,14.4-9.6,21.3c-2.1,5.3-5.9,7.5-11.2,6.4c-3.7-0.5-8-1.1-11.7-2.1c-12.8-4.3-17.1-9.6-16-22.9
       c1.6-17.1,4.3-34.1,7.5-50.6c5.3-27.7,11.2-54.9,18.1-82.1c9.6-36.2,22.4-71.4,37.3-106.1c21.9-50.1,46.9-98.6,78.4-143.4
       c12.8-17.6,26.1-35.2,43.2-49c7.5-5.9,15.5-11.2,23.5-14.9c13.9-5.9,26.1-3.2,36.8,7.5c16.5,16.5,21.3,36.2,14.9,58.6
       c-4.3,16-11.7,30.4-19.2,44.8c-12.8,23.5-27.7,44.8-43.7,66.1c-32.5,42.6-68.8,82.1-108.7,117.8c-2.7,2.1-4.8,4.8-5.9,8
       c-10.1,28.3-19.2,56.5-28.8,84.2c-0.5,2.7-1.1,5.3-2.1,7.5c0.5,0,1.1,0.5,1.1,0.5L2375,417.8z M2415,286.1c0.5,0,1.1,0.5,1.6,1.1
       c1.1-1.6,2.7-2.7,4.3-4.3l65.6-73c19.7-22.4,38.9-46.4,54.9-72.5c9.1-15.5,17.6-31.4,21.9-49.6c1.6-6.9,2.7-14.4,2.1-21.3
       c-1.6-15.5-9.6-19.2-22.4-10.1c-5.9,4.3-11.7,9.1-16.5,14.9c-10.7,12.8-20.8,25.6-29.8,39.4c-24.5,38.4-43.7,80-60.8,122.1
       L2415,286.1z M2499.7,411.9c-11.2,7.5-22.4,15.5-32,25.1c-9.1,8-17.1,17.6-25.1,27.2c-4.8,5.3-8,12.3-10.1,20.8
       C2462.9,466.8,2482.1,440.2,2499.7,411.9z"
      />
    </g>
  </svg>